<svg width="216" height="42" viewBox="0 0 216 42" fill="none" xmlns="http://www.w3.org/2000/svg">
<path d="M195.364 25.301C196.896 25.0577 198.076 23.7251 198.076 22.1267V13.8951C198.076 12.1283 196.63 10.6833 194.862 10.6833H183.525L181.218 11.024V31.2716L183.525 31.5374H186.323V25.3384H189.057L192.671 31.3427L195.278 31.5299H199.285L195.364 25.301ZM191.99 20.1652H188.626V15.9727H191.99V20.1652Z" fill="#5B5B5B"/>
<path d="M161.837 31.2342V11.0951L163.522 10.6833H174.721L180.151 15.924L178.091 16.1112H167.118V18.8063H175.282L172.623 23.4106L168.466 23.5229L168.504 26.2181H178.016L180.114 26.4053L174.983 31.5336H163.522L161.837 31.2342Z" fill="#5B5B5B"/>
<path d="M159.073 26.3042L160.717 26.4951L156.511 31.2903L156.478 31.3427H143.984C142.534 31.3427 141.351 30.1561 141.351 28.7112V26.3304L150.864 15.8791H141.886L144.905 10.9903L146.089 10.6833H156.021C157.47 10.6833 158.62 11.6791 158.62 13.124V15.5197L148.901 26.3005H159.073V26.3042Z" fill="#5B5B5B"/>
<path d="M137.055 10.8782H125.183C123.741 10.8782 122.561 12.0349 122.561 13.4461V28.7338C122.561 30.145 123.741 31.3017 125.183 31.3017H137.055C138.497 31.3017 139.677 30.145 139.677 28.7338V13.4461C139.681 12.0311 138.501 10.8782 137.055 10.8782ZM133.935 26.3718H127.958V15.8905H133.935V26.3718Z" fill="#5B5B5B"/>
<path d="M119.666 24.2343C119.666 24.2343 112.7 13.6407 111.652 12.1059C110.603 10.5712 108.618 10.6835 108.618 10.6835H101.39V31.5337H116.258C120.228 31.4963 120.415 27.4161 120.415 27.4161C120.49 25.2075 119.666 24.2343 119.666 24.2343ZM106.67 26.0685V15.8492H107.607L114.273 26.0685H106.67Z" fill="#5B5B5B"/>
<path d="M46.4703 31.5337V10.7209L57.8968 10.646L59.6721 10.9492L63.1813 16.0027H52.0881V18.5631H58.2751L60.0503 18.6417L56.616 23.6166L54.691 23.7663H52.0506V26.1808H63.1813L59.747 31.1594L57.8968 31.5337H46.4703Z" fill="#5B5B5B"/>
<path d="M40.3319 20.783L40.4443 14.2996C40.4443 12.2782 38.7589 10.6648 34.7104 10.6648H24.4748V31.5338H37.7814L40.1072 31.2343C40.1072 31.2343 43.4442 29.868 43.4442 27.1129C43.4404 24.5675 40.3769 20.8354 40.3319 20.783ZM30.0963 15.9129H32.6842V17.8594H30.0963V15.9129ZM30.0963 25.9899V22.8792H33.2835L35.3059 25.9899H30.0963Z" fill="#5B5B5B"/>
<path d="M66.391 31.5336L66.3535 10.6833H70.4096L71.5855 10.9866V26.3042H82.6226L79.6265 31.2304L78.7164 31.5336H66.391Z" fill="#5B5B5B"/>
<path d="M195.274 31.541L191.356 25.3458H188.63V31.541H183.518V10.6795H197.165C198.94 10.6795 200.386 12.1244 200.386 13.8988V22.1303C200.386 22.8977 200.109 23.6426 199.603 24.2266C199.105 24.8031 198.424 25.1849 197.678 25.3047L201.6 31.541H195.274ZM194.63 20.1613V15.7891H188.63V20.1613H194.63ZM163.518 31.541V10.6795H176.484L180.162 15.9314H168.773V18.6528H176.979L173.376 23.7924H168.773V26.4014H180.125L176.559 31.541H163.518ZM145.014 31.541C143.557 31.541 142.373 30.3581 142.373 28.902V26.5175L152.223 15.7293L142.942 15.6918L146.066 10.6795H157.013C158.47 10.6795 159.653 11.8624 159.653 13.3186V15.7143L149.938 26.4875H160.65L157.545 31.4811L157.511 31.5373H145.014V31.541ZM125.685 31.541C124.235 31.541 123.055 30.3619 123.055 28.9132V13.3073C123.055 11.8587 124.235 10.6795 125.685 10.6795H137.557C139.006 10.6795 140.186 11.8587 140.186 13.3073V28.9132C140.186 30.3619 139.006 31.541 137.557 31.541H125.685ZM134.778 26.5587V15.6619H128.464V26.5587H134.778ZM101.382 31.541V10.6795H108.614C108.614 10.6795 108.648 10.6795 108.704 10.6795C109.168 10.6795 110.745 10.7806 111.651 12.1057C112.689 13.6218 119.595 24.1293 119.666 24.2341C119.674 24.2416 120.49 25.2335 120.415 27.4196C120.415 27.4309 120.363 28.4528 119.823 29.4672C119.509 30.0624 119.089 30.5378 118.58 30.8822C117.943 31.3127 117.161 31.5335 116.254 31.541H101.382ZM114.524 26.2143L107.603 15.6319H106.599V26.2143H114.524ZM65.2073 31.541L65.1698 10.6795H70.4131V26.4875H81.7947L78.7162 31.541H65.2073ZM44.7286 31.541V10.6421H57.9004L61.4921 15.8191H50.058V18.5592H58.2862L54.6945 23.7362H50.058V26.364H61.4921L57.9004 31.541H44.7286ZM22.0702 31.5373V10.6571H34.5567C35.5154 10.6571 36.418 11.0389 37.0921 11.7314C37.7663 12.4239 38.1333 13.3448 38.1333 14.3255L37.9723 20.7603V20.779L37.976 20.7827C38.3056 21.1795 41.2119 24.7282 41.2119 27.356C41.2119 28.7822 40.2793 29.8416 39.4928 30.4817C38.6427 31.1742 37.785 31.5335 37.7775 31.5373H22.0702ZM35.1858 26.1357L33.2046 22.9613H27.4408V26.1357H35.1858ZM32.6391 17.818V15.7293H27.4408V17.818H32.6391Z" fill="url(#paint0_linear_86_818)"/>
<path d="M57.8969 10.646L61.481 15.8118H50.0507V18.5631H58.2752L54.691 23.7289H50.0507V26.3679H61.481L57.8969 31.5337H44.7326V10.646H57.8969ZM34.5569 10.6647C36.5456 10.6647 38.1298 12.308 38.1298 14.3257L37.9687 20.7604V20.7791C38.0137 20.8316 41.2083 24.6011 41.2083 27.3562C41.2083 30.1112 37.7777 31.5337 37.7777 31.5337H22.0742V10.6647H34.5569ZM27.4373 17.8219H32.6468V15.7257H27.4373V17.8219ZM27.4373 26.1396H35.1973L33.2124 22.954H27.4373V26.1396ZM108.708 10.6834C109.109 10.6834 110.734 10.7695 111.652 12.1059C112.7 13.6406 119.666 24.2342 119.666 24.2342C119.666 24.2342 120.49 25.2075 120.415 27.416C120.415 27.416 120.228 31.4963 116.258 31.5337H101.39V10.6834H108.618C108.618 10.6834 108.652 10.6834 108.708 10.6834ZM106.596 26.2182H114.535L107.607 15.6246H106.596V26.2182ZM197.165 10.6834C198.933 10.6834 200.379 12.1283 200.379 13.8952V22.1267C200.379 23.7214 199.199 25.0578 197.667 25.3011L201.589 31.5337H195.278L191.36 25.3385H188.626V31.5337H183.525V10.6834H197.165ZM188.626 20.1652H194.637V15.7818H188.63V20.1652M176.481 10.6834L180.151 15.9241H168.766V18.6567H176.968L173.372 23.785H168.766V26.4054H180.114L176.556 31.5337H163.522V10.6834H176.481ZM157.013 10.6834C158.463 10.6834 159.646 11.8701 159.646 13.315V15.7107L149.927 26.4915H160.642L159.65 28.0898L157.545 31.4775L157.511 31.53H145.014C143.564 31.53 142.381 30.3433 142.381 28.8984V26.5177L152.238 15.7219L142.954 15.6845L146.07 10.6834H157.013ZM137.557 10.6834C138.999 10.6834 140.179 11.8626 140.179 13.3037V28.9096C140.179 30.3508 138.999 31.53 137.557 31.53H125.685C124.243 31.53 123.063 30.3508 123.063 28.9096V13.3075C123.063 11.8663 124.243 10.6872 125.685 10.6872H137.557M128.46 26.5626H134.786V15.6546H128.46V26.5626ZM70.4096 10.6834V26.4915H81.7875L78.7164 31.5337H65.215L65.1775 10.6834H70.4096ZM57.9044 10.6348H57.9006H44.7363H44.7251V10.646V31.5337V31.5449H44.7363H57.9006H57.9044L57.9081 31.5412L61.4923 26.3754L61.5035 26.3604H61.4848H50.0657V23.7439H54.6948H54.6985L54.7022 23.7401L58.2864 18.5743L58.2976 18.5594H58.2789H50.0657V15.8267H61.4848H61.5035L61.4923 15.8118L57.9081 10.646L57.9044 10.6348ZM34.5569 10.6535H22.0742H22.0629V10.6647V31.5337V31.5449H22.0742H37.7815H37.7852H37.789C37.7965 31.5412 38.6579 31.1818 39.508 30.4893C40.0061 30.0813 40.4031 29.6433 40.6915 29.1791C41.0473 28.6027 41.2308 27.9888 41.2308 27.3599C41.2308 24.7321 38.3245 21.1797 37.995 20.7829L37.9912 20.7791V20.7642L38.1523 14.3294C38.1523 13.3487 37.7815 12.4241 37.1074 11.7316C36.422 11.039 35.5194 10.6535 34.5569 10.6535ZM27.4448 15.7332H32.6356V17.8107H27.4448V15.7332ZM27.4448 22.9652H33.2011L35.1748 26.1283H27.4448V22.9652ZM108.708 10.6722C108.648 10.6722 108.618 10.6722 108.618 10.6722H101.39H101.379V10.6834V31.5337V31.5449H101.39H116.258C117.165 31.5374 117.951 31.3128 118.588 30.8824C119.097 30.538 119.516 30.0626 119.835 29.4636C120.374 28.4492 120.427 27.4235 120.427 27.416C120.464 26.2743 120.258 25.4658 120.078 24.9941C119.884 24.4775 119.678 24.2305 119.674 24.2267C119.606 24.1219 112.696 13.6182 111.659 12.0984C111.27 11.5257 110.708 11.1177 109.989 10.8818C109.416 10.6909 108.903 10.6722 108.708 10.6722ZM106.607 15.6358H107.603L114.517 26.207H106.607V15.6358ZM197.165 10.6722H183.525H183.514V10.6834V31.5337V31.5449H183.525H188.626H188.638V31.5337V25.3497H191.357L195.27 31.5412L195.274 31.5449H195.282H201.592H201.611L201.6 31.53L197.686 25.3086C198.428 25.1888 199.109 24.8032 199.607 24.2305C200.113 23.6465 200.39 22.8979 200.39 22.1305V13.8952C200.39 13.038 200.053 12.2294 199.443 11.6193C198.832 11.0091 198.023 10.6722 197.165 10.6722ZM188.638 15.7931H194.626V20.154H188.638V15.7931ZM176.485 10.6722H176.481H163.522H163.511V10.6834V31.5337V31.5449H163.522H176.556H176.559L176.563 31.5412L180.121 26.4128L180.132 26.3979H180.114H168.777V23.8H173.372H173.376L173.38 23.7963L176.975 18.6679L176.986 18.6529H176.968H168.777V15.9428H180.151H180.17L180.159 15.9278L176.488 10.6872L176.485 10.6722ZM157.013 10.6722H146.07H146.062L146.059 10.6759L142.943 15.677L142.931 15.692H142.95L152.212 15.7294L142.37 26.5064L142.366 26.5102V26.5139V28.8947C142.366 29.5984 142.643 30.261 143.141 30.7626C143.643 31.2642 144.306 31.5374 145.01 31.5374H157.504H157.511L157.515 31.5337L157.549 31.4813L159.654 28.0936L160.646 26.4952L160.657 26.4802H160.639H149.95L159.654 15.7144L159.657 15.7107V15.707V13.3112C159.657 12.6075 159.38 11.9449 158.882 11.4433C158.38 10.9492 157.717 10.6722 157.013 10.6722ZM137.557 10.6722H125.685C124.984 10.6722 124.325 10.9455 123.823 11.4471C123.322 11.9487 123.048 12.6075 123.048 13.3075V28.9134C123.048 29.6134 123.322 30.2722 123.823 30.7738C124.322 31.2717 124.984 31.5487 125.685 31.5487H137.557C138.257 31.5487 138.917 31.2754 139.418 30.7738C139.917 30.2759 140.194 29.6134 140.194 28.9134V13.3075C140.194 12.6075 139.92 11.9487 139.418 11.4471C138.917 10.9455 138.257 10.6722 137.557 10.6722ZM128.467 15.6658H134.771V26.5513H128.467V15.6658ZM70.4208 10.6722H70.4096H65.1738H65.1626V10.6834L65.2 31.5337V31.5449H65.2112H78.7127H78.7201L78.7239 31.5412L81.7949 26.4989L81.8062 26.484H81.7875H70.4208V10.6872V10.6722Z" fill="#434242"/>
<path d="M85.2853 17.4587V22.5871V25.17H96.8205L97.1575 25.0202V22.5871V17.6085L96.8205 17.4587H85.2853Z" fill="#5B5B5B"/>
<path d="M96.8206 17.4587H84.9484V22.5871H96.8206V17.4587Z" fill="#FE4243"/>
<path d="M96.8206 22.5872H84.9484V25.17H96.8206V22.5872Z" fill="#8DDC81"/>
<defs>
<linearGradient id="paint0_linear_86_818" x1="111.834" y1="31.1026" x2="111.834" y2="10.6906" gradientUnits="userSpaceOnUse">
<stop stop-color="white"/>
<stop offset="1" stop-color="#CFCFCF"/>
</linearGradient>
</defs>
</svg>
