<svg width="380" height="65" viewBox="0 0 380 65" fill="none" xmlns="http://www.w3.org/2000/svg">
<g clip-path="url(#clip0_28_2)">
<path d="M108.716 21.7898C108.881 21.7778 109.069 21.7898 109.281 21.8139C109.493 21.8445 109.681 21.9412 109.846 22.1171C109.999 22.2867 110.087 22.4808 110.105 22.7048C110.128 22.923 110.14 23.1291 110.128 23.317V43.4242H114.788V21.4261C114.8 20.9839 114.741 20.5476 114.624 20.1112C114.506 19.6749 114.265 19.2688 113.906 18.881C113.623 18.5961 113.329 18.3841 113.029 18.2568C112.723 18.1295 112.411 18.0448 112.094 18.0142C111.77 17.9781 111.446 17.966 111.117 17.9719H96.5007C96.1241 17.966 95.783 17.9781 95.4709 18.0142C95.1592 18.0448 94.8591 18.1295 94.5768 18.2568C94.2945 18.3841 94.0062 18.5961 93.7118 18.881C93.4472 19.1477 93.247 19.4202 93.1117 19.6931C92.982 19.9719 92.8938 20.2506 92.8527 20.5414C92.8117 20.8263 92.7879 21.1233 92.7939 21.4261V43.4242H97.4543V23.317C97.4543 23.0926 97.4717 22.8686 97.5188 22.6505C97.5659 22.4261 97.6485 22.2506 97.7717 22.1171C97.9308 21.9412 98.1132 21.8445 98.3073 21.8139C98.5075 21.7898 98.7016 21.7778 98.9018 21.7898H108.716ZM122.45 43.4242H127.675C128.157 43.4304 128.687 43.406 129.258 43.3574C129.828 43.3089 130.417 43.1998 131.011 43.0244C131.611 42.8485 132.182 42.5698 132.741 42.194C133.294 41.8182 133.795 41.3093 134.242 40.6606C134.683 40.0003 135.007 39.267 135.224 38.4673C135.436 37.6672 135.571 36.8368 135.636 35.9704C135.701 35.1039 135.73 34.2433 135.724 33.3888C135.73 32.8555 135.718 32.2856 135.683 31.6738C135.654 31.0616 135.577 30.4315 135.454 29.7953C135.33 29.159 135.13 28.5406 134.859 27.9346C134.589 27.3349 134.218 26.777 133.747 26.2623C133.294 25.7832 132.806 25.4016 132.294 25.1167C131.782 24.838 131.276 24.626 130.77 24.4866C130.264 24.3473 129.793 24.2564 129.352 24.2137C128.917 24.1714 128.546 24.1474 128.24 24.1532H121.709C121.344 24.1474 120.961 24.1772 120.543 24.2564C120.131 24.3348 119.743 24.5049 119.378 24.7712C119.219 24.8927 119.061 25.0561 118.901 25.2623C118.737 25.4684 118.601 25.7289 118.489 26.0379C118.384 26.3469 118.325 26.7106 118.319 27.1349V49.6055H122.45V43.4242ZM122.45 40.1517V28.3345C122.45 28.2254 122.468 28.1167 122.509 28.0076C122.556 27.8985 122.626 27.789 122.732 27.68C122.809 27.6198 122.897 27.5651 123.003 27.5107C123.109 27.456 123.203 27.4257 123.297 27.4257H127.357C127.969 27.4315 128.516 27.5286 128.987 27.7165C129.464 27.9044 129.87 28.1652 130.199 28.4921C130.529 28.8197 130.782 29.1893 130.958 29.6074C131.029 29.7708 131.105 30.0072 131.182 30.3283C131.259 30.6435 131.323 31.074 131.37 31.6253C131.423 32.1769 131.453 32.8857 131.453 33.7522C131.453 34.7037 131.412 35.4855 131.341 36.0977C131.264 36.7095 131.17 37.1944 131.052 37.5519C130.935 37.9094 130.811 38.1824 130.676 38.3702C130.529 38.6307 130.305 38.8974 130.011 39.1699C129.717 39.4428 129.34 39.673 128.869 39.8609C128.399 40.0488 127.828 40.1455 127.145 40.1517H122.45ZM147.516 23.935C146.957 23.9288 146.345 23.9412 145.686 23.9773C145.028 24.008 144.357 24.0864 143.674 24.2137C142.991 24.3411 142.326 24.5472 141.691 24.8259C141.055 25.1046 140.479 25.4862 139.961 25.9711C139.426 26.4987 139.002 27.0984 138.678 27.7712C138.355 28.4436 138.113 29.1466 137.955 29.8741C137.79 30.6012 137.684 31.31 137.631 32.001C137.578 32.6858 137.554 33.31 137.56 33.8613C137.554 34.3582 137.578 34.9401 137.625 35.5946C137.672 36.2553 137.772 36.9459 137.925 37.661C138.084 38.3761 138.325 39.0733 138.649 39.7518C138.972 40.4304 139.408 41.0368 139.961 41.5698C140.479 42.0484 141.055 42.4242 141.691 42.7092C142.326 42.9879 142.991 43.194 143.674 43.3272C144.357 43.4607 145.028 43.5515 145.686 43.588C146.345 43.6304 146.957 43.6486 147.516 43.6424C148.064 43.6486 148.664 43.6304 149.323 43.588C149.982 43.5515 150.659 43.4607 151.347 43.3272C152.041 43.194 152.706 42.9879 153.348 42.7092C153.989 42.4242 154.56 42.0484 155.072 41.5698C155.536 41.1276 155.948 40.5457 156.307 39.8427C156.666 39.1338 156.948 38.2732 157.155 37.2611C157.36 36.2553 157.466 35.0674 157.472 33.7161C157.478 33.201 157.455 32.607 157.402 31.9405C157.349 31.2677 157.243 30.5771 157.078 29.8558C156.919 29.1346 156.678 28.4436 156.354 27.7712C156.037 27.0984 155.607 26.4987 155.072 25.9711C154.554 25.4862 153.977 25.1046 153.342 24.8259C152.706 24.5472 152.047 24.3411 151.359 24.2137C150.676 24.0864 150.005 24.008 149.346 23.9773C148.687 23.9412 148.081 23.9288 147.516 23.935ZM141.832 33.8252C141.826 33.51 141.832 33.1342 141.85 32.7041C141.868 32.2677 141.909 31.8131 141.979 31.3345C142.05 30.8558 142.162 30.3888 142.326 29.9405C142.485 29.4859 142.709 29.086 142.997 28.7347C143.397 28.2801 143.856 27.9408 144.386 27.7227C144.916 27.5045 145.457 27.3589 146.01 27.2984C146.557 27.2316 147.057 27.2013 147.516 27.2075C148.017 27.2013 148.534 27.2316 149.07 27.2984C149.605 27.3589 150.129 27.5045 150.635 27.7227C151.141 27.9408 151.594 28.2801 152 28.7347C152.43 29.2374 152.724 29.7953 152.895 30.4013C153.059 31.0072 153.159 31.607 153.183 32.2072C153.206 32.8011 153.212 33.3403 153.201 33.8252C153.206 34.3885 153.195 34.9583 153.153 35.5341C153.118 36.116 153.012 36.6792 152.836 37.2309C152.659 37.7825 152.371 38.2914 151.965 38.7701C151.553 39.2367 151.1 39.5822 150.605 39.8124C150.117 40.0488 149.611 40.2002 149.087 40.2732C148.564 40.3458 148.04 40.3761 147.516 40.3699C147.016 40.3761 146.498 40.3458 145.963 40.2732C145.427 40.2002 144.904 40.0488 144.398 39.8124C143.892 39.5822 143.439 39.2367 143.033 38.7701C142.65 38.3035 142.374 37.7883 142.203 37.2309C142.032 36.6672 141.927 36.0977 141.885 35.5096C141.844 34.9281 141.826 34.3644 141.832 33.8252ZM178.62 29.5344C178.661 29.4498 178.708 29.3589 178.767 29.2619C178.826 29.159 178.885 29.1043 178.938 29.0981C178.979 29.0981 179.02 29.1346 179.073 29.1951C179.12 29.2619 179.144 29.3527 179.15 29.4618L178.973 43.4242H183.104V26.6986C183.098 26.0682 182.945 25.5472 182.651 25.1411C182.351 24.7351 181.962 24.4319 181.48 24.232C180.992 24.032 180.468 23.935 179.891 23.935C179.373 23.9288 178.914 23.9956 178.508 24.1229C178.108 24.2564 177.755 24.4742 177.461 24.7774C177.161 25.0802 176.914 25.4925 176.714 26.0076L171.983 38.2612C171.959 38.3279 171.912 38.4188 171.853 38.5399C171.794 38.661 171.724 38.7701 171.653 38.8671C171.583 38.9642 171.512 39.0185 171.453 39.0247C171.394 39.0185 171.324 38.9642 171.253 38.8671C171.183 38.7701 171.112 38.661 171.053 38.5399C170.994 38.4188 170.947 38.3279 170.924 38.2612L166.193 26.0076C165.993 25.4925 165.746 25.0802 165.446 24.7774C165.151 24.4742 164.798 24.2564 164.398 24.1229C163.992 23.9956 163.533 23.9288 163.015 23.935C162.445 23.935 161.915 24.032 161.427 24.232C160.944 24.4319 160.556 24.7351 160.262 25.1411C159.962 25.5472 159.809 26.0682 159.803 26.6986V43.4242H163.933L163.757 29.4618C163.751 29.4013 163.763 29.3345 163.78 29.2557C163.804 29.1831 163.869 29.1408 163.968 29.1346C164.039 29.1466 164.098 29.1951 164.151 29.2922C164.198 29.3892 164.233 29.468 164.251 29.5344L169.053 42.0426C169.147 42.3031 169.282 42.5516 169.47 42.7942C169.659 43.0364 169.912 43.2426 170.235 43.3998C170.559 43.5574 170.965 43.6362 171.453 43.6424C171.947 43.6362 172.353 43.5574 172.671 43.3998C172.995 43.2426 173.248 43.0364 173.436 42.7942C173.624 42.5516 173.766 42.3031 173.854 42.0426L178.62 29.5344ZM186.811 24.1532V27.4257H196.026C196.243 27.4195 196.467 27.4377 196.702 27.48C196.943 27.5227 197.179 27.6015 197.409 27.7227C197.638 27.8438 197.85 28.0196 198.038 28.2619C198.262 28.553 198.409 28.8558 198.473 29.171C198.544 29.4801 198.574 29.7829 198.568 30.0798V31.4253H190.447C190.118 31.4191 189.759 31.4374 189.376 31.4859C189 31.5286 188.612 31.6315 188.211 31.7887C187.811 31.9525 187.411 32.2072 187.023 32.5523C186.558 32.9766 186.211 33.4432 185.981 33.9525C185.758 34.4614 185.605 34.9944 185.534 35.5523C185.464 36.1035 185.428 36.6734 185.434 37.2429C185.428 37.6004 185.446 38.0127 185.475 38.4673C185.505 38.9277 185.575 39.4001 185.675 39.8854C185.781 40.3761 185.946 40.8427 186.164 41.2911C186.381 41.7394 186.681 42.1397 187.058 42.479C187.417 42.788 187.788 43.012 188.182 43.1455C188.571 43.2786 188.959 43.3575 189.347 43.3877C189.735 43.418 190.1 43.4304 190.447 43.4242H199.38C199.68 43.4242 199.98 43.4122 200.292 43.3819C200.603 43.3454 200.898 43.2728 201.186 43.1637C201.474 43.0547 201.733 42.885 201.957 42.6606C202.174 42.4242 202.339 42.1575 202.445 41.8668C202.551 41.5698 202.622 41.279 202.657 40.9821C202.686 40.6913 202.704 40.4246 202.698 40.1882V30.1889C202.692 29.1105 202.557 28.1893 202.304 27.4257C202.045 26.6559 201.721 26.0623 201.321 25.6439C200.886 25.1835 200.333 24.8197 199.656 24.5592C198.98 24.2925 198.244 24.1594 197.438 24.1532H186.811ZM198.568 34.6979V39.1338C198.574 39.279 198.562 39.4184 198.532 39.5457C198.503 39.6792 198.421 39.8062 198.285 39.9335C198.138 40.0368 197.979 40.1032 197.814 40.1276C197.644 40.1455 197.497 40.1579 197.367 40.1517H191.612C191.342 40.1455 191.089 40.0853 190.848 39.97C190.612 39.8547 190.418 39.7216 190.271 39.5702C190.106 39.3823 189.988 39.1579 189.906 38.9032C189.824 38.6428 189.771 38.3823 189.741 38.1156C189.718 37.8551 189.706 37.6249 189.706 37.425C189.706 36.9704 189.735 36.5946 189.794 36.3159C189.847 36.031 189.912 35.8128 189.983 35.6614C190.053 35.5096 190.112 35.4067 190.165 35.3524C190.324 35.1462 190.5 35.0007 190.701 34.9098C190.9 34.8128 191.089 34.7522 191.265 34.7281C191.448 34.7037 191.583 34.6917 191.683 34.6979H198.568ZM209.653 43.4242V28.9529C209.648 28.7165 209.653 28.5045 209.677 28.3166C209.7 28.1287 209.783 27.9529 209.936 27.789C210.024 27.6924 210.148 27.6074 210.295 27.5406C210.442 27.468 210.607 27.4257 210.783 27.4257H221.163V24.1532H208.135C207.876 24.1474 207.606 24.1714 207.341 24.2137C207.07 24.2623 206.811 24.3593 206.564 24.5049C206.323 24.6501 206.099 24.8745 205.911 25.1714C205.723 25.4804 205.611 25.8197 205.57 26.1893C205.528 26.553 205.517 26.9288 205.523 27.3166V43.4242H209.653ZM226 43.4242H231.225C231.707 43.4304 232.237 43.406 232.808 43.3574C233.378 43.3089 233.967 43.1998 234.561 43.0244C235.162 42.8485 235.732 42.5698 236.291 42.194C236.844 41.8182 237.344 41.3093 237.792 40.6606C238.233 40.0003 238.557 39.267 238.774 38.4673C238.986 37.6672 239.121 36.8368 239.186 35.9704C239.251 35.1039 239.28 34.2433 239.274 33.3888C239.28 32.8555 239.269 32.2856 239.233 31.6738C239.204 31.0616 239.127 30.4315 239.004 29.7953C238.88 29.159 238.68 28.5406 238.41 27.9346C238.139 27.3349 237.768 26.777 237.297 26.2623C236.844 25.7832 236.356 25.4016 235.844 25.1167C235.332 24.838 234.826 24.626 234.32 24.4866C233.814 24.3473 233.343 24.2564 232.902 24.2137C232.466 24.1714 232.096 24.1474 231.79 24.1532H225.258C224.893 24.1474 224.511 24.1772 224.093 24.2564C223.681 24.3348 223.293 24.5049 222.928 24.7712C222.769 24.8927 222.61 25.0561 222.451 25.2623C222.287 25.4684 222.151 25.7289 222.04 26.0379C221.934 26.3469 221.875 26.7106 221.869 27.1349V49.6055H226V43.4242ZM226 40.1517V28.3345C226 28.2254 226.017 28.1167 226.059 28.0076C226.106 27.8985 226.176 27.789 226.282 27.68C226.359 27.6198 226.447 27.5651 226.553 27.5107C226.659 27.456 226.753 27.4257 226.847 27.4257H230.907C231.519 27.4315 232.066 27.5286 232.537 27.7165C233.014 27.9044 233.42 28.1652 233.749 28.4921C234.079 28.8197 234.331 29.1893 234.508 29.6074C234.579 29.7708 234.655 30.0072 234.732 30.3283C234.808 30.6435 234.873 31.074 234.92 31.6253C234.973 32.1769 235.002 32.8857 235.002 33.7522C235.002 34.7037 234.961 35.4855 234.89 36.0977C234.814 36.7095 234.72 37.1944 234.602 37.5519C234.485 37.9094 234.361 38.1824 234.226 38.3702C234.079 38.6307 233.855 38.8974 233.561 39.1699C233.267 39.4428 232.89 39.673 232.419 39.8609C231.949 40.0488 231.378 40.1455 230.695 40.1517H226ZM251.066 23.935C250.507 23.9288 249.895 23.9412 249.236 23.9773C248.577 24.008 247.906 24.0864 247.224 24.2137C246.541 24.3411 245.876 24.5472 245.241 24.8259C244.605 25.1046 244.029 25.4862 243.511 25.9711C242.975 26.4987 242.552 27.0984 242.228 27.7712C241.904 28.4436 241.663 29.1466 241.505 29.8741C241.339 30.6012 241.234 31.31 241.181 32.001C241.128 32.6858 241.104 33.31 241.11 33.8613C241.104 34.3582 241.128 34.9401 241.175 35.5946C241.222 36.2553 241.322 36.9459 241.475 37.661C241.634 38.3761 241.875 39.0733 242.199 39.7518C242.522 40.4304 242.958 41.0368 243.511 41.5698C244.029 42.0484 244.605 42.4242 245.241 42.7092C245.876 42.9879 246.541 43.194 247.224 43.3272C247.906 43.4607 248.577 43.5515 249.236 43.588C249.895 43.6304 250.507 43.6486 251.066 43.6424C251.614 43.6486 252.214 43.6304 252.872 43.588C253.532 43.5515 254.208 43.4607 254.897 43.3272C255.591 43.194 256.256 42.9879 256.897 42.7092C257.539 42.4242 258.11 42.0484 258.621 41.5698C259.086 41.1276 259.498 40.5457 259.857 39.8427C260.216 39.1338 260.499 38.2732 260.704 37.2611C260.911 36.2553 261.017 35.0674 261.022 33.7161C261.028 33.201 261.004 32.607 260.952 31.9405C260.899 31.2677 260.793 30.5771 260.628 29.8558C260.469 29.1346 260.228 28.4436 259.904 27.7712C259.586 27.0984 259.157 26.4987 258.621 25.9711C258.104 25.4862 257.527 25.1046 256.892 24.8259C256.256 24.5472 255.597 24.3411 254.909 24.2137C254.226 24.0864 253.555 24.008 252.896 23.9773C252.237 23.9412 251.631 23.9288 251.066 23.935ZM245.382 33.8252C245.376 33.51 245.382 33.1342 245.4 32.7041C245.417 32.2677 245.459 31.8131 245.529 31.3345C245.6 30.8558 245.711 30.3888 245.876 29.9405C246.035 29.4859 246.259 29.086 246.547 28.7347C246.947 28.2801 247.406 27.9408 247.936 27.7227C248.465 27.5045 249.007 27.3589 249.56 27.2984C250.107 27.2316 250.607 27.2013 251.066 27.2075C251.566 27.2013 252.084 27.2316 252.62 27.2984C253.155 27.3589 253.679 27.5045 254.185 27.7227C254.691 27.9408 255.144 28.2801 255.55 28.7347C255.98 29.2374 256.274 29.7953 256.444 30.4013C256.609 31.0072 256.709 31.607 256.733 32.2072C256.756 32.8011 256.762 33.3403 256.75 33.8252C256.756 34.3885 256.744 34.9583 256.703 35.5341C256.668 36.116 256.562 36.6792 256.386 37.2309C256.209 37.7825 255.921 38.2914 255.515 38.7701C255.103 39.2367 254.65 39.5822 254.156 39.8124C253.667 40.0488 253.161 40.2002 252.637 40.2732C252.114 40.3458 251.59 40.3761 251.066 40.3699C250.566 40.3761 250.048 40.3458 249.513 40.2732C248.977 40.2002 248.454 40.0488 247.947 39.8124C247.442 39.5822 246.989 39.2367 246.583 38.7701C246.2 38.3035 245.923 37.7883 245.753 37.2309C245.582 36.6672 245.476 36.0977 245.435 35.5096C245.394 34.9281 245.376 34.3644 245.382 33.8252ZM261.587 43.4242H265.824L271.579 28.553C271.602 28.4863 271.631 28.4137 271.661 28.3287C271.696 28.2436 271.732 28.171 271.779 28.1105C271.82 28.0437 271.873 28.0076 271.932 28.0076C271.99 28.0076 272.043 28.0437 272.084 28.1105C272.132 28.171 272.167 28.2436 272.202 28.3287C272.231 28.4137 272.261 28.4863 272.285 28.553L278.039 43.4242H282.276L274.685 25.5348C274.515 25.1594 274.291 24.8562 274.003 24.6198C273.714 24.3834 273.397 24.2079 273.038 24.0988C272.679 23.9897 272.314 23.935 271.932 23.935C271.549 23.935 271.184 23.9897 270.825 24.0988C270.466 24.2079 270.148 24.3834 269.86 24.6198C269.572 24.8562 269.348 25.1594 269.178 25.5348L261.587 43.4242ZM301.658 43.4242V26.8803C301.647 26.171 301.535 25.614 301.311 25.2079C301.094 24.8019 300.823 24.5107 300.511 24.329C300.199 24.1473 299.893 24.0383 299.605 23.9897C299.31 23.947 299.093 23.9288 298.94 23.935C298.658 23.9288 298.363 23.9653 298.069 24.0321C297.775 24.0988 297.481 24.232 297.198 24.4199C296.916 24.6077 296.645 24.8865 296.398 25.244L288.066 37.8609C287.995 37.9762 287.925 38.0911 287.842 38.2006C287.766 38.3035 287.677 38.364 287.571 38.3702C287.436 38.3702 287.354 38.3279 287.325 38.2367C287.295 38.1521 287.284 38.0247 287.289 37.8609L287.466 24.1532H283.335V40.9153C283.329 41.1758 283.359 41.4607 283.417 41.7697C283.476 42.0787 283.6 42.3757 283.782 42.6606C283.965 42.9456 284.235 43.1758 284.6 43.3574C284.965 43.5395 285.447 43.6362 286.054 43.6424C286.518 43.6424 286.913 43.588 287.23 43.4728C287.542 43.3575 287.819 43.1878 288.054 42.9638C288.29 42.7394 288.519 42.4545 288.737 42.1152L296.963 29.7165C297.104 29.5041 297.21 29.3648 297.292 29.2984C297.369 29.2316 297.422 29.2013 297.457 29.2075C297.592 29.2075 297.663 29.2557 297.669 29.3527C297.68 29.4436 297.68 29.5651 297.669 29.7165L297.528 43.4242H301.658ZM304.483 43.4242H315.533C315.939 43.4304 316.357 43.4122 316.787 43.3637C317.216 43.3214 317.646 43.2181 318.069 43.0605C318.493 42.897 318.899 42.6424 319.276 42.2973C319.517 42.0787 319.746 41.7821 319.964 41.4064C320.182 41.0244 320.364 40.5577 320.505 40.0003C320.647 39.4487 320.717 38.7942 320.723 38.043C320.717 37.1583 320.617 36.4428 320.435 35.9036C320.246 35.3582 320.029 34.9463 319.77 34.6614C319.558 34.4009 319.281 34.1583 318.934 33.9463C318.587 33.734 318.163 33.5946 317.652 33.534V33.4253C318.146 33.3644 318.569 33.225 318.923 33.0131C319.276 32.8011 319.558 32.5585 319.77 32.298C319.993 32.0313 320.188 31.6435 320.352 31.1284C320.523 30.6132 320.611 29.9284 320.617 29.062C320.623 28.6679 320.588 28.2499 320.523 27.8073C320.458 27.3651 320.335 26.9346 320.158 26.5107C319.976 26.0802 319.717 25.6986 319.382 25.3531C319.017 24.9956 318.617 24.7289 318.187 24.5592C317.758 24.3834 317.316 24.2743 316.857 24.2199C316.404 24.1714 315.951 24.1474 315.498 24.1532H304.836V27.4257H313.944C314.056 27.4195 314.215 27.4315 314.421 27.4498C314.621 27.4742 314.839 27.5165 315.074 27.5891C315.304 27.6621 315.515 27.777 315.71 27.9346C315.875 28.074 316.022 28.2863 316.145 28.5589C316.275 28.8314 316.339 29.1951 316.345 29.6435C316.339 30.0922 316.275 30.4556 316.151 30.7285C316.028 31.001 315.892 31.2134 315.745 31.3527C315.569 31.5162 315.392 31.6373 315.209 31.7103C315.033 31.7829 314.845 31.8252 314.656 31.8434C314.462 31.8554 314.262 31.8679 314.05 31.8617H305.012V35.1342H313.909C314.056 35.1342 314.227 35.14 314.433 35.1583C314.633 35.1765 314.845 35.2188 315.062 35.2914C315.28 35.3582 315.486 35.4615 315.675 35.6066C315.91 35.7767 316.081 35.9704 316.192 36.1886C316.304 36.4005 316.375 36.6249 316.41 36.8551C316.439 37.0853 316.457 37.3155 316.451 37.5341C316.445 38.0911 316.381 38.5399 316.251 38.873C316.128 39.2002 315.981 39.4487 315.816 39.6063C315.551 39.8547 315.245 40.0061 314.91 40.0729C314.58 40.1338 314.233 40.1637 313.874 40.1517H304.483V43.4242ZM341.518 43.4242V26.8803C341.506 26.171 341.394 25.614 341.17 25.2079C340.953 24.8019 340.682 24.5107 340.371 24.329C340.058 24.1473 339.752 24.0383 339.464 23.9897C339.17 23.947 338.952 23.9288 338.799 23.935C338.517 23.9288 338.223 23.9653 337.928 24.0321C337.634 24.0988 337.34 24.232 337.058 24.4199C336.775 24.6077 336.504 24.8865 336.257 25.244L327.925 37.8609C327.855 37.9762 327.784 38.0911 327.702 38.2006C327.625 38.3035 327.537 38.364 327.431 38.3702C327.296 38.3702 327.213 38.3279 327.184 38.2367C327.154 38.1521 327.143 38.0247 327.148 37.8609L327.325 24.1532H323.194V40.9153C323.188 41.1758 323.218 41.4607 323.277 41.7697C323.336 42.0787 323.459 42.3757 323.642 42.6606C323.824 42.9456 324.095 43.1758 324.459 43.3574C324.824 43.5395 325.307 43.6362 325.913 43.6424C326.378 43.6424 326.772 43.588 327.09 43.4728C327.401 43.3575 327.678 43.1878 327.914 42.9638C328.149 42.7394 328.378 42.4545 328.596 42.1152L336.822 29.7165C336.963 29.5041 337.069 29.3648 337.152 29.2984C337.228 29.2316 337.281 29.2013 337.317 29.2075C337.452 29.2075 337.522 29.2557 337.528 29.3527C337.54 29.4436 337.54 29.5651 337.528 29.7165L337.387 43.4242H341.518ZM361.536 43.4242V24.1532H357.405V31.8617H348.473V24.1532H344.342V43.4242H348.473V35.1342H357.405V43.4242H361.536ZM368.491 43.4242V28.9529C368.485 28.7165 368.491 28.5045 368.514 28.3166C368.538 28.1287 368.62 27.9529 368.773 27.789C368.861 27.6924 368.985 27.6074 369.132 27.5406C369.279 27.468 369.444 27.4257 369.621 27.4257H380V24.1532H366.973C366.714 24.1474 366.443 24.1714 366.178 24.2137C365.907 24.2623 365.648 24.3593 365.402 24.5049C365.16 24.6501 364.937 24.8745 364.748 25.1714C364.56 25.4804 364.448 25.8197 364.407 26.1893C364.366 26.553 364.354 26.9288 364.36 27.3166V43.4242H368.491Z" fill="#282827"/>
<path fill-rule="evenodd" clip-rule="evenodd" d="M23.3047 22.8336C23.8482 20.6516 25.0819 16.2626 26.6108 13.5549C28.1392 10.8472 30.0868 9.41548 32.1396 9.45974C34.192 9.5036 36.6809 11.2633 39.2279 13.7396C41.7748 16.216 50.2012 24.6601 55.5981 32.074C60.9951 39.4874 67.7346 48.2091 67.7162 55.1362C67.6977 62.0632 61.3648 63.0528 58.1869 63.5757C55.009 64.0982 44.6768 65.052 39.5671 64.998C34.4574 64.9437 31.3876 64.6785 31.3876 64.6785C31.3876 64.6785 39.3289 63.4697 43.0074 62.946C46.6855 62.4223 55.4504 60.0046 59.2129 57.5287C62.9755 55.0523 63.7949 51.8609 62.7908 49.1016C61.7866 46.3423 57.6452 40.4517 50.4477 34.5701C43.2505 28.6881 31.806 21.5782 29.4653 21.0778C27.1241 20.5774 25.4494 21.1644 24.8505 21.5495C24.2519 21.9349 23.3047 22.8336 23.3047 22.8336Z" fill="#61BF1A"/>
<path fill-rule="evenodd" clip-rule="evenodd" d="M25.2013 57.1657C23.0939 57.7682 17.9789 58.7228 14.9378 58.7084C11.8967 58.694 10.2748 57.5368 9.28792 55.6824C8.30149 53.8283 8.10247 49.5488 8.91627 46.0403C9.73045 42.5313 12.2246 31.9785 15.7727 23.4637C19.3208 14.9485 23.2997 4.58276 29.1388 1.14447C34.9779 -2.29344 38.9692 2.86614 40.9937 5.44224C43.0186 8.01834 48.9742 16.766 51.477 21.3542C53.9795 25.9427 55.2875 28.815 55.2875 28.815C55.2875 28.815 50.3093 22.3289 48.0345 19.3064C45.7593 16.2843 39.3533 9.66585 35.3929 7.54201C31.4324 5.41855 28.3378 6.27802 26.5165 8.55093C24.6947 10.8235 21.8029 17.4582 20.4418 26.8162C19.0811 36.1745 18.8511 49.5872 19.5975 51.9265C20.3438 54.2658 21.4331 55.5244 22.282 56.142C23.1305 56.76 25.2013 57.1657 25.2013 57.1657Z" fill="#BB2B2F"/>
<path fill-rule="evenodd" clip-rule="evenodd" d="M52.0859 37.7791C53.6385 39.3653 57.1903 43.4678 58.6856 46.1953C60.1809 48.9228 60.0083 51.384 58.9333 53.1852C57.8586 54.9869 54.3482 56.6305 50.986 57.641C47.6237 58.6519 37.275 61.6996 28.5479 63.1337C19.8211 64.5677 9.52966 65.9764 3.73619 62.457C-2.05729 58.938 0.317022 52.3739 1.48627 49.2858C2.65552 46.198 6.44559 36.5353 9.07471 32.0225C11.7042 27.51 13.1339 24.3396 13.1339 24.3396C13.1339 24.3396 10.198 32.5555 9.05397 36.1168C7.90998 39.6782 5.64951 48.66 5.82101 53.2551C5.99289 57.8506 8.25148 60.6294 11.0706 61.1325C13.8897 61.6356 20.4947 60.7159 29.0616 57.2955C37.6282 53.8751 49.0538 46.9965 50.6569 45.1697C52.26 43.3428 52.5691 41.9627 52.6698 40.8975C52.77 39.8323 52.0859 37.7791 52.0859 37.7791Z" fill="#2B2A29"/>
</g>
<defs>
<clipPath id="clip0_28_2">
<rect width="380" height="65" fill="white"/>
</clipPath>
</defs>
</svg>
