<svg width="96" height="96" viewBox="0 0 96 96" fill="none" xmlns="http://www.w3.org/2000/svg">
<path d="M48 0C21.5321 0 0 21.5321 0 48C0 74.4679 21.5321 96 48 96C74.4679 96 96 74.4679 96 48C96 21.5321 74.4679 0 48 0ZM18.1267 70.1148C19.7357 70.2215 21.4835 70.2853 23.3584 70.2853C26.6759 70.2853 30.4033 70.068 34.4327 69.5341C35.4572 69.3974 36.6674 70.0173 37.1527 70.9317C37.6548 71.8777 38.1717 72.8234 38.7131 73.7715C39.2245 74.6708 38.8312 75.5434 37.8101 75.7101C32.7321 76.5363 28.1578 76.8435 24.2821 76.8697C23.2482 76.8773 21.7759 76.3059 21.0341 75.5827C19.7192 74.3016 18.4921 72.9323 17.3684 71.4786C16.735 70.6617 17.0946 70.0473 18.1267 70.1148ZM38.0591 11.8533C38.5368 12.3664 38.1376 13.1027 37.1675 13.4606C36.6337 13.6593 36.0961 13.8501 35.5564 14.0412C34.5804 14.3839 33.8086 14.0712 33.8537 13.3517C33.8968 12.6323 34.6593 11.7651 35.5526 11.4562C36.4443 11.149 37.5797 11.3401 38.0591 11.8533ZM36.7983 34.0018C35.8054 34.2904 34.8632 33.676 34.7209 32.6511C34.412 30.4257 34.1888 28.3221 34.0335 26.3667C33.9512 25.3345 34.099 24.4391 34.3462 24.3699C34.4943 24.3306 34.6421 24.2876 34.7884 24.2407C37.6861 23.3023 40.4922 22.2384 43.2457 21.1033C44.2027 20.71 45.4673 21.062 46.0556 21.9126C47.1662 23.5199 48.3203 25.2863 49.4833 27.2042C50.0192 28.0903 49.6762 29.1673 48.7301 29.585C46.7409 30.4635 44.6522 31.3214 42.4456 32.1418C40.5222 32.8554 38.6398 33.466 36.7983 34.0018ZM55.5508 38.8271C57.0868 42.3113 58.5012 46.0762 59.6904 50.0905C59.9845 51.0833 59.4469 52.2577 58.5067 52.6886C56.1766 53.7582 53.7076 54.7976 51.0703 55.7829C48.5059 56.74 46.007 57.5269 43.5832 58.173C42.5831 58.4409 41.4421 57.8641 41.0602 56.9012C39.5187 53.005 38.2878 49.1892 37.3118 45.5217C37.0459 44.5216 37.6582 43.4988 38.6529 43.2178C40.9475 42.5717 43.3021 41.8109 45.7053 40.9176C48.2979 39.9547 50.7496 38.9394 53.0743 37.8979C54.0186 37.4764 55.133 37.8811 55.5508 38.8271ZM55.2849 15.3919C56.8192 14.5564 58.3287 13.6948 59.8013 12.7976C60.6853 12.26 62.1783 12.0933 63.1298 12.4997C65.1604 13.3669 67.1027 14.399 68.9387 15.5868C69.8059 16.1489 69.8286 17.1659 69.0041 17.7896C66.644 19.5783 63.8079 21.5359 60.4735 23.5327C59.5857 24.0647 58.4413 23.7538 57.9092 22.8659C56.8285 21.0658 55.7512 19.38 54.6967 17.8195C54.1161 16.9634 54.3764 15.8865 55.2849 15.3919ZM16.6954 28.1107C18.7146 27.8916 20.7341 27.6068 22.7478 27.249C23.7668 27.0672 24.6471 27.738 24.7408 28.7681C24.9075 30.6058 25.1286 32.5444 25.4172 34.5694C25.5632 35.594 24.8644 36.5438 23.8361 36.6674C19.7058 37.162 15.997 37.2725 12.8276 37.1864C11.7937 37.1582 11.1886 36.3024 11.5296 35.3264C12.1853 33.4549 12.985 31.6531 13.9086 29.9242C14.3973 29.0116 15.6671 28.2212 16.6954 28.1107ZM25.683 45.8551C26.7097 45.7239 27.736 46.4113 27.9963 47.4118C28.9403 51.0251 30.115 54.7769 31.5666 58.6114C31.932 59.5798 31.413 60.4563 30.383 60.5521C22.8583 61.2525 16.8194 60.7057 13.0673 60.1195C12.0444 59.9604 10.9599 59.0013 10.6903 58.0029C9.83033 54.811 9.36402 51.4618 9.36402 48.0021C9.36402 47.7303 9.37918 47.4645 9.39777 47.1986C9.42773 46.7564 10.2839 46.4568 11.316 46.5019C12.3967 46.5504 13.5356 46.5787 14.7458 46.5787C17.9993 46.5763 21.684 46.3686 25.683 45.8551ZM46.3159 85.2088C46.9041 85.9844 46.5556 86.5967 45.5235 86.5275C43.4891 86.3945 41.4979 86.1004 39.5593 85.6641C38.5495 85.4354 38.5702 85.089 39.5893 84.9185C40.8442 84.7087 42.1274 84.4653 43.433 84.1935C44.4448 83.9835 45.726 84.4332 46.3159 85.2088ZM55.6744 80.8646C55.9031 80.7934 56.1314 80.7203 56.3639 80.6398C58.1341 80.0199 59.8443 79.381 61.4964 78.7274C62.4572 78.3451 63.1991 78.8641 63.126 79.8979C63.083 80.5347 63.0286 81.1774 62.9687 81.8196C62.8733 82.8497 62.0078 84.0093 61.0301 84.3523C60.7566 84.4477 60.4832 84.5396 60.2077 84.6295C59.2241 84.9481 57.8551 84.5452 57.1825 83.7586C56.8378 83.356 56.4968 82.9493 56.1617 82.5446C55.5019 81.7432 55.2922 80.9828 55.6744 80.8646ZM51.0682 72.5217C50.0812 72.8307 48.8241 72.3606 48.2865 71.4765C47.7658 70.6204 47.262 69.7645 46.7767 68.9067C46.2674 68.0075 46.6793 67.0504 47.6739 66.7639C49.8487 66.1364 52.0738 65.4059 54.3461 64.5573C56.5058 63.7501 58.5515 62.907 60.5162 62.0453C61.464 61.6297 62.3611 62.107 62.5017 63.1336C62.6329 64.0945 62.7489 65.0667 62.8502 66.0482C62.9552 67.0783 62.2565 68.2585 61.3066 68.667C58.7946 69.7477 56.1197 70.8005 53.2706 71.7971C52.5274 72.0572 51.7952 72.2951 51.0682 72.5217ZM72.6547 55.9141C77.7458 52.9489 81.8782 50.0081 85.0945 47.4362C85.9017 46.7901 86.5688 46.64 86.5988 47.1235C86.6174 47.4138 86.6343 47.7042 86.6343 48C86.6343 49.36 86.5423 50.6973 86.3908 52.018C86.2726 53.0447 85.4936 54.4081 84.6788 55.0469C81.9739 57.1674 78.3024 59.7655 73.6534 62.4686C72.7601 62.9876 71.9301 62.564 71.7896 61.5377C71.6584 60.5769 71.5161 59.627 71.357 58.6868C71.1862 57.6674 71.7613 56.4348 72.6547 55.9141ZM83.1483 36.7649C80.4734 39.2111 76.2157 42.6953 70.3321 46.3538C69.4536 46.9007 68.4965 46.5243 68.1834 45.5373C66.9416 41.6091 65.5103 37.9189 63.9708 34.4819C63.5476 33.5379 63.9202 32.3632 64.8101 31.837C69.3151 29.1714 73.039 26.5416 75.9912 24.2283C76.806 23.5895 77.9993 23.6925 78.6285 24.5131C80.7734 27.3079 82.536 30.4043 83.8602 33.7236C84.2421 34.6837 83.9105 36.0661 83.1483 36.7649ZM72.6623 75.884C72.664 75.7697 72.6661 75.6536 72.6678 75.5393C72.6829 74.5054 73.421 73.2839 74.335 72.8007C75.7659 72.042 77.128 71.2816 78.4222 70.5305C79.3176 70.0098 79.5687 70.2739 78.9484 71.1018C77.48 73.0631 75.8296 74.8801 74.024 76.5284C73.2598 77.2251 72.6433 76.9179 72.6623 75.884Z" fill="#F9A038"/>
</svg>
