<svg width="96" height="96" viewBox="0 0 96 96" fill="none" xmlns="http://www.w3.org/2000/svg">
<g clip-path="url(#clip0_17_1065)">
<path d="M93.8717 53.601L92.0667 51.129C90.5757 49.0887 90.5561 46.3224 92.0079 44.2429L93.7736 41.7513C95.8139 38.8477 94.8722 34.8258 91.7332 33.1386L89.0454 31.6868C86.8089 30.4901 85.5925 27.9985 86.0045 25.5069L86.5146 22.4856C87.1032 18.9935 84.4939 15.7564 80.9429 15.6191L77.8823 15.4817C75.3515 15.3836 73.1738 13.6572 72.4676 11.2244L71.6239 8.28163C70.643 4.86796 66.8958 3.10227 63.6195 4.51482L60.814 5.73118C58.4794 6.73174 55.7916 6.14318 54.0848 4.24016L52.0444 1.96438C49.6705 -0.684157 45.531 -0.64492 43.1963 2.02323L41.1952 4.33825C39.5276 6.24127 36.8398 6.88869 34.5052 5.92737L31.6801 4.76986C28.4038 3.41617 24.6762 5.24072 23.7345 8.674L22.9301 11.6168C22.2827 14.0888 20.1443 15.8349 17.6134 15.9722L14.5529 16.1488C11.0019 16.3449 8.45146 19.6213 9.09888 23.0938L9.64821 26.0955C10.0994 28.5871 8.92231 31.0983 6.70539 32.3146L4.03723 33.8057C0.937466 35.5321 0.0350025 39.5736 2.13421 42.4379L3.93914 44.9099C5.43017 46.9502 5.44979 49.7165 3.998 51.7961L2.23231 54.2877C0.191953 57.1913 1.13365 61.2131 4.27266 62.9003L6.96043 64.3521C9.19697 65.5489 10.4133 68.0404 10.0013 70.532L9.47164 73.5337C8.88307 77.0258 11.4924 80.2629 15.0434 80.4003L18.1039 80.5376C20.6347 80.6357 22.8124 82.3622 23.5187 84.7949L24.3623 87.7377C25.3432 91.1514 29.0904 92.9171 32.3668 91.5045L35.1722 90.2881C37.5069 89.2876 40.1947 89.8761 41.9015 91.7595L43.9418 94.0353C46.3157 96.6839 50.4553 96.6446 52.7899 93.9765L54.791 91.6615C56.4586 89.7584 59.1464 89.111 61.481 90.0723L64.3061 91.2298C67.5825 92.5835 71.31 90.759 72.2517 87.3257L73.0561 84.3829C73.7232 81.9502 75.8812 80.2041 78.412 80.0471L81.4726 79.8706C85.0236 79.6744 87.574 76.398 86.9266 72.9255L86.3773 69.9238C85.926 67.4323 87.1032 64.9211 89.3201 63.7047L91.9882 62.2137C95.0684 60.5264 95.9512 56.4654 93.8717 53.601ZM48.0029 79.0073C30.8953 79.0073 17.0249 65.1369 17.0249 48.0293C17.0249 30.9217 30.8953 17.0512 48.0029 17.0512C65.1105 17.0512 78.981 30.9217 78.981 48.0293C78.981 65.1369 65.1105 79.0073 48.0029 79.0073Z" fill="#35363D"/>
<path d="M44.0409 48.8532L41.2943 46.087C39.6659 44.439 36.9978 44.439 35.3498 46.0674C33.7018 47.6957 33.7018 50.3639 35.3302 52.0118L38.0768 54.7781L41.1373 57.8386C42.7264 59.4474 45.3161 59.4474 46.9249 57.8582L49.9854 54.8173L60.658 44.2036C62.306 42.5752 62.306 39.9071 60.6776 38.2591C59.0493 36.6111 56.3811 36.6111 54.7331 38.2395L44.0409 48.8532Z" fill="#35363D"/>
</g>
<defs>
<clipPath id="clip0_17_1065">
<rect width="96" height="96" fill="white"/>
</clipPath>
</defs>
</svg>
