<svg width="96" height="96" viewBox="0 0 96 96" fill="none" xmlns="http://www.w3.org/2000/svg">
<g clip-path="url(#clip0_17_1106)">
<path d="M93.8476 25.8545C92.6032 25.3051 91.1498 25.5776 90.1899 26.5384L80.4463 36.2776L62.6718 33.1346L59.5273 15.359L69.2715 5.62004C70.2306 4.65898 70.5033 3.20694 69.955 1.9625C69.4072 0.71962 68.147 -0.0607912 66.7918 0.00385252C60.1515 0.313986 53.606 2.99465 48.5332 8.06889C40.7433 15.8558 38.59 27.1101 42.0034 36.8488L3.78235 75.0782C-1.00558 79.863 -1.00558 87.6242 3.78235 92.4108C6.07828 94.7083 9.19446 95.9999 12.4464 95.9999C15.6952 95.9999 18.8141 94.7081 21.11 92.4123L59.521 54.0011C69.1289 57.1344 80.1045 54.91 87.736 47.2736C92.809 42.2021 95.4909 35.6583 95.8045 29.0195C95.8645 27.6628 95.0921 26.4054 93.8476 25.8545ZM18.3994 85.1006C16.3824 87.1178 13.108 87.1178 11.091 85.1006C9.07044 83.0804 9.07044 79.8091 11.091 77.7888C13.108 75.7719 16.3824 75.7719 18.3994 77.7888C20.4169 79.8091 20.4169 83.0802 18.3994 85.1006Z" fill="#F9A038"/>
</g>
<defs>
<clipPath id="clip0_17_1106">
<rect width="96" height="96" fill="white"/>
</clipPath>
</defs>
</svg>
