<svg width="96" height="96" viewBox="0 0 96 96" fill="none" xmlns="http://www.w3.org/2000/svg">
<path d="M59.1508 15.6054C58.7356 18.8225 59.4621 21.7283 59.8773 24.7379C59.8773 25.0492 59.7735 25.4643 59.6697 25.7757C58.2166 28.4739 58.528 32.2099 60.3963 34.3892C62.8874 37.3988 66.5203 37.9177 69.5303 36.7761C75.0315 34.5968 76.0695 27.2285 71.6062 23.4925C71.2949 23.285 71.0873 22.7661 70.9835 22.4548C70.7759 20.6905 70.5683 19.0301 70.3607 17.2658C70.2569 16.6432 70.4645 16.3318 71.1911 16.4356C73.1632 16.747 75.1353 17.0583 77.1074 17.3696C78.0416 17.5772 78.6644 18.1999 78.872 19.0301C79.1833 20.2754 79.4947 21.6245 79.5985 22.8699C80.2213 29.4079 80.7403 36.0497 81.2593 42.5877C81.4668 45.1821 81.2593 47.7766 81.1555 50.3711C81.1555 51.5126 80.6365 52.5504 79.7023 53.3806C73.0594 60.0224 46.3839 86.5896 39.741 93.3352C38.4954 94.5805 37.1461 95.7221 35.2777 95.9296C32.8904 96.2409 30.9183 95.5145 29.3614 93.854C21.5767 86.0707 3.62004 68.1171 2.37449 66.8718C-0.843181 63.7584 -0.739385 59.7111 2.37449 56.5977C6.31873 52.7579 40.6751 18.3036 42.9586 16.0205C43.6852 15.2941 44.5156 15.2941 45.4497 15.2941C49.0826 15.2941 52.8192 15.2941 56.4521 15.2941C57.2824 15.5016 58.1128 15.5016 59.1508 15.6054ZM27.4931 55.8713C25.8323 56.8053 24.1716 57.8431 22.6147 58.7771C22.5109 58.8809 22.5109 59.296 22.5109 59.5035C23.3412 61.8904 24.6906 64.0697 26.3513 65.9378C26.7665 66.3529 26.7665 66.6642 26.3513 67.0793C25.3133 68.0133 24.483 68.9473 23.5488 69.8813C24.6906 71.1267 25.8323 72.2682 27.0779 73.5136C28.012 72.5796 28.9462 71.6456 29.8804 70.7115C30.7107 69.8813 30.7107 69.7775 31.7487 70.504C33.4094 71.5418 35.1739 72.0607 37.1461 72.1644C41.8169 72.5795 47.5256 67.9095 46.0725 61.7866C45.5535 59.7111 44.7231 57.7393 43.8928 55.7675C43.3738 54.3146 42.6472 52.8617 42.5434 51.305C42.5434 50.371 42.8548 49.6446 43.5814 49.1257C44.6194 48.503 45.7611 48.7106 46.6953 49.3333C48.2522 50.3711 49.4978 51.8239 50.4319 53.3806C51.0547 54.4184 51.5737 55.56 52.1964 56.8053C52.404 56.7015 52.7154 56.5977 53.0268 56.3902C54.2724 55.6637 55.4141 54.9373 56.6597 54.2108C57.1786 53.8995 57.2824 53.6919 56.971 53.2768C56.1407 51.8239 55.3103 50.3711 54.3762 48.9182C54.0648 48.3993 53.6496 47.9842 53.1306 47.4653C54.0648 46.5313 54.9989 45.701 55.9331 44.767C56.0369 44.6633 56.1407 44.2481 56.1407 44.1444C55.1027 43.0028 53.961 41.965 52.8192 40.8235C51.7813 41.8612 50.8471 42.7953 49.9129 43.7293C49.4978 44.1444 49.2902 44.1444 48.7712 43.833C47.4218 43.0028 46.0725 42.3801 44.5156 42.1726C41.4017 41.7575 38.703 42.5877 36.6271 44.9746C34.655 47.1539 34.2398 49.7484 35.0701 52.4466C35.6929 54.626 36.6271 56.5977 37.4574 58.6733C37.9764 59.9186 38.4954 61.164 38.4954 62.5131C38.3916 64.1735 37.1461 65.3151 35.4853 65.1075C34.3436 65.0038 33.4094 64.4849 32.579 63.7584C30.9183 62.3055 29.6728 60.6451 28.7386 58.6733C28.3234 57.8431 27.9082 56.9091 27.4931 55.8713Z" fill="#F9A038"/>
<path d="M95.9994 19.1339C95.8957 24.7379 94.9615 30.2382 93.0932 35.5308C92.0552 38.3328 90.8097 41.0311 89.5641 43.7293C88.8375 45.3898 87.073 46.0124 85.6199 45.286C84.0629 44.4557 83.6478 42.7953 84.4781 41.1348C85.3085 39.2668 86.2427 37.5026 86.9692 35.6346C88.8375 30.757 89.9793 25.6719 90.1869 20.483C90.2907 18.0961 90.1869 15.813 89.3565 13.4261C87.2806 6.57675 79.1845 3.56719 73.1644 7.3032C68.805 10.0014 67.0404 13.945 67.5594 18.9263C67.9746 22.1435 68.5974 25.2568 69.1163 28.3701C69.3239 29.6155 69.3239 30.6533 68.3898 31.691C67.1442 33.0402 64.5493 32.625 63.9266 30.8608C63.5114 29.6155 63.2 28.2664 62.9924 26.9173C62.4734 23.9077 61.9544 20.7943 61.7469 17.7848C61.3317 10.5203 65.8987 3.67096 72.7492 1.18029C78.458 -0.895271 83.9591 -0.272603 88.8375 3.35963C91.8476 5.53897 93.7159 8.44476 94.8577 11.9732C95.7919 14.2563 95.9994 16.6432 95.9994 19.1339Z" fill="#F9A038"/>
</svg>
