<svg width="96" height="96" viewBox="0 0 96 96" fill="none" xmlns="http://www.w3.org/2000/svg">
<path d="M42 24H54C55.6567 24 57 22.6567 57 21V9C57 4.029 52.9703 0 48 0C43.0297 0 39 4.029 39 9V21C39 22.6567 40.3432 24 42 24ZM48 6C49.6567 6 51 7.34288 51 9C51 10.6567 49.6567 12 48 12C46.3432 12 45 10.6567 45 9C45 7.34288 46.3432 6 48 6Z" fill="#35363D"/>
<path d="M78 6H63V24C63 27.3135 60.3135 30 57 30H39C35.6865 30 33 27.3135 33 24V6H18C14.6865 6 12 8.68613 12 12V90C12 93.3135 14.6865 96 18 96H78C81.3135 96 84 93.3135 84 90V12C84 8.68613 81.3135 6 78 6ZM33 81C31.3433 81 30 79.6568 30 78C30 76.3432 31.3433 75 33 75C34.6567 75 36 76.3432 36 78C36 79.6568 34.6567 81 33 81ZM33 69C31.3433 69 30 67.6567 30 66C30 64.3433 31.3433 63 33 63C34.6567 63 36 64.3433 36 66C36 67.6567 34.6567 69 33 69ZM33 57C31.3433 57 30 55.6567 30 54C30 52.3433 31.3433 51 33 51C34.6567 51 36 52.3433 36 54C36 55.6567 34.6567 57 33 57ZM33 45C31.3433 45 30 43.6567 30 42C30 40.3433 31.3433 39 33 39C34.6567 39 36 40.3433 36 42C36 43.6567 34.6567 45 33 45ZM63 81H45C43.3433 81 42 79.6568 42 78C42 76.3432 43.3433 75 45 75H63C64.6567 75 66 76.3432 66 78C66 79.6568 64.6567 81 63 81ZM63 69H45C43.3433 69 42 67.6567 42 66C42 64.3433 43.3433 63 45 63H63C64.6567 63 66 64.3433 66 66C66 67.6567 64.6567 69 63 69ZM63 57H45C43.3433 57 42 55.6567 42 54C42 52.3433 43.3433 51 45 51H63C64.6567 51 66 52.3433 66 54C66 55.6567 64.6567 57 63 57ZM63 45H45C43.3433 45 42 43.6567 42 42C42 40.3433 43.3433 39 45 39H63C64.6567 39 66 40.3433 66 42C66 43.6567 64.6567 45 63 45Z" fill="#35363D"/>
</svg>
