<svg width="96" height="96" viewBox="0 0 96 96" fill="none" xmlns="http://www.w3.org/2000/svg">
<g clip-path="url(#clip0_17_1123)">
<path d="M70.2435 78.2057H25.7572C15.93 78.2059 7.96289 86.1722 7.96289 96H7.96308H88.0376V95.9998C88.0372 86.1726 80.0707 78.2057 70.2435 78.2057Z" fill="#35363D"/>
<path d="M35.1475 36.4377C38.8329 36.4377 41.8205 33.4501 41.8205 29.7647C41.8205 26.0794 38.8329 23.0918 35.1475 23.0918C31.4622 23.0918 28.4746 26.0794 28.4746 29.7647C28.4746 33.4501 31.4622 36.4377 35.1475 36.4377Z" fill="#35363D"/>
<path d="M66.6039 29.7645L68.1763 28.1919L41.4384 1.45388L38.2927 4.59938L33.6935 0L27.4023 6.29138L32.0017 10.8906L28.856 14.0363L31.691 16.8713C32.805 16.5744 33.9639 16.4184 35.1472 16.4184C38.7122 16.4184 42.0639 17.8069 44.5845 20.3278C47.105 22.848 48.4933 26.1994 48.4933 29.7643C48.4933 30.9476 48.3369 32.1068 48.0405 33.2207L55.5939 40.7741L57.1667 39.2014L61.766 43.8008L71.2031 34.3635L66.6039 29.7645Z" fill="#35363D"/>
<path d="M65.0309 59.6481C58.082 66.5972 46.8151 66.5972 39.8656 59.6483C35.3778 55.1603 33.7929 48.8729 35.1016 43.1095C31.5541 43.0975 28.2202 41.7115 25.7105 39.2016C24.7496 38.2407 23.9544 37.1584 23.3369 35.9901C19.1174 47.0993 21.4811 60.1375 30.4289 69.085C31.3093 69.9651 32.2304 70.7796 33.1843 71.5326L71.6594 71.5748C72.6324 70.8102 73.5712 69.9812 74.4678 69.0846L65.0309 59.6481Z" fill="#35363D"/>
</g>
<defs>
<clipPath id="clip0_17_1123">
<rect width="96" height="96" fill="white"/>
</clipPath>
</defs>
</svg>
