<svg width="152" height="152" viewBox="0 0 152 152" fill="none" xmlns="http://www.w3.org/2000/svg">
<g clip-path="url(#clip0_158_219)">
<path d="M71.2 18.9C39.5 44.1 34.2 90.2 59.4 121.9L105 179.3L219.8 88.1L174.2 30.7C149 -1.00002 102.9 -6.30002 71.2 18.9Z" fill="#F5F3F1"/>
<path d="M150.7 162.9C191.624 162.9 224.8 129.724 224.8 88.8C224.8 47.8757 191.624 14.7 150.7 14.7C109.776 14.7 76.6001 47.8757 76.6001 88.8C76.6001 129.724 109.776 162.9 150.7 162.9Z" fill="#E7E4E2"/>
<path d="M174.2 164.4C174.9 159.3 169.7 155.3 164.8 153.7C159.9 152.2 154.4 151.8 150.3 148.6C146 145.2 144 139 138.9 137.2C135.2 135.9 131.1 137.3 127.2 138C119.8 139.3 111.8 137.4 105.8 132.9C104.2 131.7 102.7 130.4 100.9 129.7C99.0001 129 96.9001 129.1 94.9001 129.3C89.5 129.9 84 131.8 80.6 136C78.9 138.1 77.8001 140.8 75.9001 142.8C72.9001 146.1 68.3 147.3 63.8 147.8C59.4 148.3 54.9 148.1 50.6 149.2C43.6 151 37.6 156.1 34.8 162.7C35.8 162.6 37 163.2 38 163.1L174.2 164.4Z" fill="#FF5050"/>
<path d="M140.2 92.8H137.5V73.8C137.5 65.8 131 59.4 123.1 59.4H122.1C114.1 59.4 107.7 65.9 107.7 73.8V92.9H105V73.8C105 64.3 112.7 56.7 122.1 56.7H123.1C132.6 56.7 140.2 64.4 140.2 73.8V92.8Z" fill="#F9A038"/>
<path d="M137.5 92.8H86.6001V58H122C128.9 58 137.5 63.6 137.5 70.6V92.8Z" fill="#E88C31"/>
<g opacity="0.26">
<path d="M134.4 72.8H96.3V73.6H134.4V72.8Z" fill="white"/>
<path d="M134.4 60.4H96.3V72.8H134.4V60.4Z" fill="white"/>
</g>
<path d="M116.7 44.8H112.3H111.3H109.2V46.9V48.6V62.5V70.4V73.9C109.2 76.3 111.1 78.2 113.5 78.2C115.9 78.2 117.8 76.3 117.8 73.9V68.4L112.2 64.6V50.7H116.6C117.8 50.7 118.7 49.8 118.7 48.6V46.9C118.8 45.8 117.8 44.8 116.7 44.8Z" fill="#54555F"/>
<path d="M114.9 73.6C114.9 74.4 114.2 75.1 113.4 75.1C112.6 75.1 111.9 74.4 111.9 73.6C111.9 72.8 112.6 72.1 113.4 72.1C114.3 72 114.9 72.7 114.9 73.6Z" fill="#35363D"/>
<path d="M137.5 92.7H103.6V92.8H137.5V92.7Z" fill="#F97E38"/>
<path d="M137.5 92.5H103.6V92.8H137.5V92.5Z" fill="#F97E38"/>
<path d="M137.5 92.2H103.6V92.5H137.5V92.2Z" fill="#F97F38"/>
<path d="M137.5 92H103.6V92.3H137.5V92Z" fill="#F98038"/>
<path d="M137.5 91.7H103.6V92H137.5V91.7Z" fill="#F98138"/>
<path d="M137.5 91.5H103.6V91.8H137.5V91.5Z" fill="#F98238"/>
<path d="M137.5 91.2H103.6V91.5H137.5V91.2Z" fill="#F98338"/>
<path d="M137.5 90.9H103.6V91.2H137.5V90.9Z" fill="#F98438"/>
<path d="M137.5 90.7H103.6V91H137.5V90.7Z" fill="#F98538"/>
<path d="M137.5 90.4H103.6V90.7H137.5V90.4Z" fill="#F98638"/>
<path d="M137.5 90.2H103.6V90.5H137.5V90.2Z" fill="#F98738"/>
<path d="M137.5 89.9H103.6V90.2H137.5V89.9Z" fill="#F98838"/>
<path d="M137.5 89.6H103.6V89.9H137.5V89.6Z" fill="#F98938"/>
<path d="M137.5 89.4H103.6V89.7H137.5V89.4Z" fill="#F98A38"/>
<path d="M137.5 89.1H103.6V89.4H137.5V89.1Z" fill="#F98B38"/>
<path d="M137.5 88.9H103.6V89.2H137.5V88.9Z" fill="#F98C38"/>
<path d="M137.5 88.6H103.6V88.9H137.5V88.6Z" fill="#F98D38"/>
<path d="M137.5 88.3H103.6V88.6H137.5V88.3Z" fill="#F98E38"/>
<path d="M137.5 88.1H103.6V88.4H137.5V88.1Z" fill="#F99038"/>
<path d="M137.5 87.8H103.6V88.1H137.5V87.8Z" fill="#F99138"/>
<path d="M137.5 87.6H103.6V87.9H137.5V87.6Z" fill="#F99238"/>
<path d="M137.5 87.3H103.6V87.6H137.5V87.3Z" fill="#F99338"/>
<path d="M137.5 87H103.6V87.3H137.5V87Z" fill="#F99438"/>
<path d="M137.5 86.8H103.6V87.1H137.5V86.8Z" fill="#F99538"/>
<path d="M137.5 86.5H103.6V86.8H137.5V86.5Z" fill="#F99638"/>
<path d="M137.5 86.3H103.6V86.6H137.5V86.3Z" fill="#F99738"/>
<path d="M137.5 86H103.6V86.3H137.5V86Z" fill="#F99838"/>
<path d="M137.5 85.8H103.6V86.1H137.5V85.8Z" fill="#F99938"/>
<path d="M137.5 85.5H103.6V85.8H137.5V85.5Z" fill="#F99A38"/>
<path d="M137.5 85.2H103.6V85.5H137.5V85.2Z" fill="#F99B38"/>
<path d="M137.5 85H103.6V85.3H137.5V85Z" fill="#F99C38"/>
<path d="M137.5 84.7H103.6V85H137.5V84.7Z" fill="#F99D38"/>
<path d="M137.5 84.5H103.6V84.8H137.5V84.5Z" fill="#F99E38"/>
<path d="M137.5 84.2H103.6V84.5H137.5V84.2Z" fill="#F99F38"/>
<path d="M137.5 83.9H103.6V84.2H137.5V83.9Z" fill="#F9A038"/>
<path d="M102.9 92.8H70.4001V73.8C70.4001 65.1 77.5001 58 86.2001 58H87.2001C95.9001 58 103 65.1 103 73.8V92.8H102.9Z" fill="#C66914"/>
<path d="M103 89.6H53.2V92.8H103V89.6Z" fill="#F9A038"/>
<path d="M114.7 92.8H106.9V168.6H114.7V92.8Z" fill="#F9A038"/>
<path d="M114.8 101.1L106.9 105V92.8H114.8V101.1Z" fill="#BC6611"/>
<path d="M100.5 68.2H73H70.1H63.5V89.6H69.2H71.9H101.8V73.8C101.7 71.8 101.3 69.9 100.5 68.2Z" fill="#F3F3F5"/>
<path d="M84.2 68.2H63.5V89.6H84.2V68.2Z" fill="white"/>
<path d="M72.9001 71H66.1001V71.6H72.9001V71Z" fill="#9E9E9E"/>
<path d="M72.9001 72.4H66.1001V73H72.9001V72.4Z" fill="#9E9E9E"/>
<path d="M72.9001 73.8H66.1001V74.4H72.9001V73.8Z" fill="#9E9E9E"/>
<path d="M68.6001 75.3H66.1001V75.9H68.6001V75.3Z" fill="#9E9E9E"/>
<path d="M93.4 80.6C95.8301 80.6 97.8 78.63 97.8 76.2C97.8 73.7699 95.8301 71.8 93.4 71.8C90.9699 71.8 89 73.7699 89 76.2C89 78.63 90.9699 80.6 93.4 80.6Z" fill="#D6D6D6"/>
<path d="M96.1001 77.4H75.1001V89.6H96.1001V77.4Z" fill="#EDEDED"/>
<path d="M82.4001 77.4H75.1001V84.9H82.4001V77.4Z" fill="white"/>
<path d="M96.2 77.4H82.5V84.9H96.2V77.4Z" fill="white"/>
<g opacity="0.38">
<path d="M85.9 58H84.9C83.6 58 82.2 58.2 81 58.5C87.8 60.2 92.9 66.4 92.9 73.8V92.9H101.7V73.8C101.7 65.1 94.6 58 85.9 58Z" fill="#606060"/>
</g>
<path d="M87.1001 56.6H86.1001C78.6001 56.6 72.2001 61.4 69.9001 68.1H72.8001C75.0001 62.9 80.1001 59.3 86.1001 59.3H87.1001C95.1001 59.3 101.5 65.8 101.5 73.7V92.8H104.2V73.8C104.3 64.3 96.6001 56.6 87.1001 56.6Z" fill="#F9A038"/>
</g>
<defs>
<clipPath id="clip0_158_219">
<rect width="152" height="152" fill="white"/>
</clipPath>
</defs>
</svg>
